<?xml version="1.0" standalone="no"?>
<!DOCTYPE svg PUBLIC "-//W3C//DTD SVG 20010904//EN"
 "http://www.w3.org/TR/2001/REC-SVG-20010904/DTD/svg10.dtd">
<svg version="1.0" xmlns="http://www.w3.org/2000/svg"
 width="380.000000pt" height="380.000000pt" viewBox="0 0 380.000000 380.000000"
 preserveAspectRatio="xMidYMid meet">

<g transform="translate(0.000000,380.000000) scale(0.100000,-0.100000)"
fill="#000000" stroke="none">
<path d="M790 2100 l0 -850 1110 0 1110 0 0 850 0 850 -1110 0 -1110 0 0 -850z
m2130 -5 l0 -755 -1020 0 -1020 0 0 755 0 755 1020 0 1020 0 0 -755z"/>
<path d="M1432 2530 c-68 -41 -89 -117 -53 -188 24 -47 67 -72 123 -72 80 0
141 58 141 133 0 115 -116 185 -211 127z"/>
<path d="M2119 2178 c-68 -101 -189 -280 -269 -398 -80 -118 -151 -215 -157
-215 -5 0 -74 79 -152 175 -78 96 -176 216 -217 267 l-74 92 -88 -92 c-48 -50
-117 -124 -154 -163 l-68 -71 0 -191 0 -192 960 0 960 0 0 51 c0 48 -5 58 -83
168 -46 64 -128 179 -182 256 -121 171 -347 489 -350 493 -1 1 -58 -80 -126
-180z"/>
<path d="M830 989 c0 -68 3 -90 13 -87 7 3 14 28 17 59 l5 54 29 -50 c28 -48
43 -65 59 -65 4 0 7 41 7 90 0 73 -3 90 -15 90 -12 0 -15 -13 -15 -57 l-1 -58
-35 58 c-52 83 -64 77 -64 -34z"/>
<path d="M1220 1065 c0 -8 7 -15 15 -15 8 0 15 7 15 15 0 8 -7 15 -15 15 -8 0
-15 -7 -15 -15z"/>
<path d="M2386 1065 c4 -8 10 -15 15 -15 5 0 9 7 9 15 0 8 -7 15 -15 15 -9 0
-12 -6 -9 -15z"/>
<path d="M2452 993 c2 -58 7 -88 16 -91 9 -3 12 19 12 87 0 75 -3 91 -15 91
-13 0 -15 -14 -13 -87z"/>
<path d="M2650 996 c0 -78 10 -111 25 -86 4 7 13 7 26 -1 32 -17 69 13 69 54
0 50 -20 71 -58 64 -30 -6 -32 -5 -32 23 0 20 -5 30 -15 30 -12 0 -15 -16 -15
-84z m85 -26 c0 -28 -4 -36 -22 -38 -14 -2 -23 3 -28 17 -10 34 4 63 28 59 18
-2 22 -10 22 -38z"/>
<path d="M2802 993 c2 -58 7 -88 16 -91 9 -3 12 19 12 87 0 75 -3 91 -15 91
-13 0 -15 -14 -13 -87z"/>
<path d="M1012 1017 c-6 -6 -13 -24 -17 -39 -5 -21 -1 -33 19 -52 30 -31 55
-33 84 -6 43 41 17 110 -42 110 -19 0 -38 -6 -44 -13z m68 -21 c18 -23 8 -61
-17 -64 -29 -4 -48 30 -33 58 13 24 33 26 50 6z"/>
<path d="M1220 964 c0 -48 3 -65 13 -62 7 3 13 28 15 66 2 51 0 62 -13 62 -12
0 -15 -13 -15 -66z"/>
<path d="M1280 963 c0 -79 22 -84 30 -7 4 41 8 49 25 49 17 0 20 -8 23 -53 4
-68 25 -65 32 4 4 35 10 50 22 52 14 3 17 -6 20 -50 4 -71 23 -63 23 10 l0 57
-87 1 -88 2 0 -65z"/>
<path d="M1507 1023 c-15 -14 -5 -23 22 -21 41 4 40 -13 -1 -26 -25 -8 -33
-17 -33 -35 0 -32 28 -50 55 -34 12 8 21 9 25 3 4 -6 11 -8 16 -5 13 9 11 99
-3 113 -13 13 -70 17 -81 5z m63 -72 c0 -5 -7 -14 -15 -21 -18 -15 -42 1 -31
19 8 13 46 15 46 2z"/>
<path d="M1642 1018 c-7 -7 -12 -29 -12 -49 0 -45 31 -75 62 -58 15 8 18 6 18
-10 0 -24 -18 -31 -48 -18 -29 13 -42 -1 -18 -19 23 -17 50 -18 77 -4 16 9 19
22 19 88 l0 78 -43 2 c-24 1 -49 -4 -55 -10z m63 -48 c0 -28 -4 -35 -20 -35
-13 0 -21 8 -23 23 -5 34 5 54 25 50 13 -2 18 -13 18 -38z"/>
<path d="M1787 1012 c-23 -25 -21 -68 3 -92 24 -24 49 -25 76 -6 25 19 9 34
-17 18 -16 -10 -24 -10 -35 -1 -24 20 -16 29 26 29 35 0 40 3 40 23 0 13 -5
28 -12 35 -18 18 -63 14 -81 -6z m61 -19 c2 -8 -6 -13 -22 -13 -25 0 -33 10
-19 24 10 10 36 3 41 -11z"/>
<path d="M1993 1024 c-28 -12 -12 -25 22 -18 28 5 35 3 35 -10 0 -9 -8 -16
-18 -16 -19 0 -62 -27 -62 -38 1 -23 23 -36 65 -37 l46 -2 -3 61 -3 61 -35 2
c-19 1 -41 0 -47 -3z m45 -95 c-16 -11 -30 -7 -36 9 -2 7 7 16 20 21 17 6 24
5 26 -7 2 -8 -2 -18 -10 -23z"/>
<path d="M2121 978 c12 -29 23 -59 26 -66 9 -21 27 -8 45 30 27 56 33 88 16
88 -9 0 -20 -18 -28 -42 l-13 -43 -18 43 c-10 23 -25 42 -33 42 -13 0 -13 -8
5 -52z"/>
<path d="M2257 1023 c-15 -15 -5 -23 24 -21 44 4 48 -18 5 -26 -23 -4 -37 -14
-41 -27 -10 -30 9 -43 60 -44 l45 0 0 51 c0 27 -5 55 -12 62 -13 13 -70 17
-81 5z m63 -77 c0 -18 -30 -30 -43 -17 -5 5 -6 14 -3 20 10 16 46 13 46 -3z"/>
<path d="M2389 1025 c-3 -29 0 -115 5 -115 3 0 9 0 14 0 4 0 5 27 4 60 -2 33
-8 60 -13 60 -5 0 -9 -2 -10 -5z"/>
<path d="M2527 1023 c-15 -14 -5 -23 22 -21 40 4 39 -14 -2 -28 -33 -11 -47
-38 -28 -57 6 -6 31 -12 56 -12 l45 -2 0 52 c0 28 -5 56 -12 63 -13 13 -70 17
-81 5z m63 -72 c0 -5 -7 -14 -15 -21 -18 -15 -42 1 -31 19 8 13 46 15 46 2z"/>
<path d="M2872 1010 c-18 -29 -15 -67 8 -90 24 -24 53 -26 76 -3 20 20 4 29
-24 14 -13 -7 -22 -7 -30 1 -21 21 -13 28 28 28 33 0 40 3 40 19 0 47 -73 70
-98 31z m66 -17 c2 -8 -6 -13 -22 -13 -25 0 -33 10 -19 24 10 10 36 3 41 -11z"/>
</g>
</svg>
