<?xml version="1.0" standalone="no"?>
<!DOCTYPE svg PUBLIC "-//W3C//DTD SVG 20010904//EN"
 "http://www.w3.org/TR/2001/REC-SVG-20010904/DTD/svg10.dtd">
<svg version="1.0" xmlns="http://www.w3.org/2000/svg"
 width="30.000000pt" height="71.000000pt" viewBox="0 0 150.000000 191.000000"
 preserveAspectRatio="xMidYMid meet">

<g transform="translate(0.000000,191.000000) scale(0.100000,-0.100000)"
fill="#5a8dee" stroke="none">
<path d="M5 1887 c-4 -13 -5 -39 -3 -58 l3 -34 315 -5 315 -5 58 -33 57 -32
58 32 57 33 315 5 315 5 0 55 0 55 -320 0 -320 0 -49 -26 -50 -26 -55 26 -56
26 -317 3 -317 3 -6 -24z"/>
<path d="M7 1663 c-4 -3 -7 -53 -7 -110 l0 -103 75 0 75 0 0 50 0 50 195 0
195 0 0 -358 0 -358 -48 -25 c-69 -35 -187 -34 -257 3 -59 31 -95 67 -124 125
l-21 42 147 3 148 3 3 42 c3 39 1 43 -25 48 -107 22 -149 49 -185 118 -11 22
-23 67 -26 99 l-5 59 -71 -3 -71 -3 -3 -290 c-2 -159 2 -331 7 -381 21 -183
92 -327 225 -459 113 -112 251 -181 419 -210 l37 -6 -2 833 -3 833 -336 3
c-184 1 -338 -1 -342 -5z m279 -989 c57 -16 172 -16 232 2 l22 6 0 -296 0
-297 -72 38 c-134 69 -247 210 -292 363 -9 30 -20 99 -23 154 l-6 98 40 -25
c22 -14 67 -33 99 -43z"/>
<path d="M820 835 l0 -836 38 6 c287 47 511 239 608 520 l28 80 4 373 3 373
-73 -3 -73 -3 -3 -116 -3 -115 -71 35 c-66 33 -77 36 -167 36 -53 0 -107 -2
-121 -5 l-25 -5 -3 188 -2 187 195 0 195 0 0 -50 0 -50 75 0 75 0 0 110 0 110
-340 0 -340 0 0 -835z m440 204 c54 -24 105 -71 131 -121 10 -21 19 -40 19
-43 0 -3 -59 -5 -131 -5 -72 0 -139 -5 -150 -10 -19 -11 -26 -54 -11 -76 4 -6
28 -13 55 -16 99 -11 167 -91 167 -196 0 -108 -75 -257 -180 -355 -64 -61
-181 -133 -194 -120 -9 9 -7 895 2 909 10 16 65 43 109 54 50 12 128 3 183
-21z"/>
</g>
</svg>
