<?xml version="1.0" standalone="no"?>
<!DOCTYPE svg PUBLIC "-//W3C//DTD SVG 20010904//EN"
 "http://www.w3.org/TR/2001/REC-SVG-20010904/DTD/svg10.dtd">
<svg version="1.0" xmlns="http://www.w3.org/2000/svg"
 width="897.000000pt" height="1081.000000pt" viewBox="0 0 897.000000 1081.000000"
 preserveAspectRatio="xMidYMid meet">

<g transform="translate(0.000000,1081.000000) scale(0.100000,-0.100000)"
fill="#0E1621" stroke="none">
<path d="M4430 10780 c-19 -10 -694 -293 -1500 -628 -806 -336 -1477 -615
-1492 -622 -32 -15 -52 -57 -42 -94 7 -30 23 -42 152 -116 104 -59 100 -51 86
-189 -6 -57 -9 -63 -38 -75 -74 -32 -115 -114 -95 -190 10 -36 50 -85 90 -111
15 -9 10 -98 -49 -925 l-66 -915 90 -270 91 -270 90 271 90 271 -65 911 -65
912 46 41 c30 25 51 54 58 79 23 76 -14 159 -85 190 l-43 20 -6 87 c-4 48 -5
88 -4 89 2 2 508 -291 549 -318 l24 -16 -28 -363 c-28 -350 -30 -369 -68 -504
-108 -388 -162 -759 -180 -1248 -8 -230 -7 -250 15 -397 32 -204 70 -536 92
-785 25 -292 25 -973 0 -1174 -44 -349 -112 -572 -225 -737 -63 -92 -71 -97
-222 -128 -179 -37 -291 -75 -431 -148 -461 -237 -823 -729 -1074 -1460 -106
-307 -129 -445 -106 -623 28 -208 110 -372 256 -514 181 -174 442 -312 828
-436 828 -268 2155 -411 3622 -391 1829 24 3172 268 3815 691 111 73 246 208
302 302 77 128 128 314 128 466 0 112 -30 249 -99 455 -176 526 -384 901 -660
1185 -253 262 -504 399 -861 473 -151 31 -159 36 -222 128 -113 165 -181 388
-225 737 -25 203 -25 884 0 1174 23 258 62 589 92 786 23 151 24 166 15 400
-28 697 -144 1266 -347 1699 -40 85 -46 107 -57 214 l-12 118 35 22 c20 13 86
51 146 86 329 188 753 435 776 451 51 35 45 114 -9 139 -15 7 -686 286 -1492
622 -806 335 -1482 618 -1503 629 -46 23 -72 23 -117 -1z m-809 -3264 c244
-91 487 -181 539 -201 228 -89 343 -105 471 -65 l64 19 410 -211 c225 -116
567 -292 758 -391 l348 -179 27 23 c15 13 63 59 106 101 80 76 80 76 109 61
40 -20 75 -102 89 -208 29 -217 -57 -546 -175 -670 -48 -49 -87 -63 -131 -47
-16 7 -30 11 -31 9 -1 -1 -14 -38 -29 -82 -150 -432 -432 -882 -723 -1155
-456 -427 -937 -541 -1416 -335 -424 182 -834 634 -1101 1214 -53 114 -118
279 -131 334 -6 21 -12 26 -24 21 -9 -4 -28 -9 -42 -11 -140 -24 -303 359
-287 671 11 199 85 309 179 262 41 -20 39 -21 39 10 0 50 51 276 86 387 45
137 105 268 169 367 56 87 205 240 233 240 10 0 219 -74 463 -164z m-85 -3491
c215 -162 438 -268 684 -326 136 -32 411 -33 552 -2 309 69 576 216 873 479
l71 63 10 -67 c17 -105 56 -176 148 -268 65 -64 100 -90 177 -129 l96 -49 -9
-40 c-15 -65 -58 -134 -137 -218 -287 -306 -772 -540 -1261 -609 -109 -15
-391 -15 -500 0 -403 57 -790 220 -1104 465 -162 127 -296 297 -296 375 0 22
9 30 57 51 203 87 342 244 374 419 l12 70 90 -80 c49 -43 122 -104 163 -134z"/>
</g>
</svg>
