<?xml version="1.0" standalone="no"?>
<!DOCTYPE svg PUBLIC "-//W3C//DTD SVG 20010904//EN"
 "http://www.w3.org/TR/2001/REC-SVG-20010904/DTD/svg10.dtd">
<svg version="1.0" xmlns="http://www.w3.org/2000/svg"
 width="512.000000pt" height="512.000000pt" viewBox="0 0 512.000000 512.000000"
 preserveAspectRatio="xMidYMid meet">

<g transform="translate(0.000000,512.000000) scale(0.100000,-0.100000)"
fill="#5A8DEE" stroke="none">
<path d="M1380 5113 c-362 -38 -662 -178 -918 -427 -229 -222 -383 -509 -436
-812 -91 -515 92 -1039 481 -1379 157 -137 350 -249 536 -309 119 -39 313 -76
394 -76 l73 0 0 -241 c0 -227 1 -243 21 -279 24 -42 82 -80 123 -80 15 0 41 6
59 14 18 7 226 142 463 300 l429 286 383 0 c399 0 518 7 666 42 452 105 854
437 1036 857 90 208 125 381 124 611 -1 183 -18 292 -73 459 -77 234 -201 431
-383 607 -178 173 -354 281 -579 355 -234 77 -171 73 -1329 75 -569 1 -1051 0
-1070 -3z m252 -1231 c59 -26 124 -91 151 -151 30 -64 30 -178 0 -242 -27 -60
-92 -125 -152 -152 -64 -30 -178 -30 -242 0 -129 59 -202 206 -169 342 43 180
242 278 412 203z m900 0 c59 -26 124 -91 151 -151 30 -64 30 -178 0 -242 -27
-60 -92 -125 -152 -152 -64 -30 -178 -30 -242 0 -129 59 -202 206 -169 342 43
180 242 278 412 203z m900 0 c59 -26 124 -91 151 -151 30 -64 30 -178 0 -242
-27 -60 -92 -125 -152 -152 -64 -30 -178 -30 -242 0 -129 59 -202 206 -169
342 43 180 242 278 412 203z"/>
<path d="M4880 2719 c-137 -238 -347 -460 -581 -612 -241 -156 -519 -256 -801
-286 -54 -6 -256 -11 -450 -11 l-352 0 -421 -279 c-246 -164 -440 -286 -469
-295 -206 -69 -437 20 -536 205 -47 88 -60 148 -60 279 l0 115 -84 18 c-247
51 -541 191 -746 356 l-65 52 -8 -58 c-10 -72 -2 -241 18 -352 30 -170 105
-369 192 -510 215 -348 562 -600 949 -689 148 -35 267 -42 666 -42 l383 0 434
-295 c239 -162 448 -299 464 -305 17 -5 41 -10 55 -10 39 0 98 39 121 80 20
36 21 52 21 284 l0 246 73 0 c81 0 275 37 394 76 108 35 271 114 368 178 105
71 241 190 311 274 341 408 448 925 292 1412 -30 92 -102 260 -112 260 -2 0
-28 -41 -56 -91z"/>
</g>
</svg>
