<?xml version="1.0" standalone="no"?>
<!DOCTYPE svg PUBLIC "-//W3C//DTD SVG 20010904//EN"
 "http://www.w3.org/TR/2001/REC-SVG-20010904/DTD/svg10.dtd">
<svg version="1.0" xmlns="http://www.w3.org/2000/svg"
 width="512.000000pt" height="512.000000pt" viewBox="0 0 512.000000 512.000000"
 preserveAspectRatio="xMidYMid meet">

<g transform="translate(0.000000,512.000000) scale(0.100000,-0.100000)"
fill="#5A8DEE" stroke="none">
<path d="M1795 4861 c-85 -21 -115 -76 -115 -209 l0 -92 -27 -6 c-150 -34
-334 -105 -477 -184 l-109 -61 -77 76 -78 75 -58 0 -58 0 -188 -187 c-126
-126 -191 -198 -199 -221 -20 -61 -4 -99 77 -182 l74 -76 -26 -38 c-54 -79
-154 -304 -189 -426 -21 -69 -39 -131 -41 -137 -2 -9 -31 -13 -100 -13 -106 0
-146 -13 -179 -58 -19 -25 -20 -45 -23 -292 -2 -251 -1 -267 18 -298 36 -58
72 -72 186 -72 l101 0 7 -40 c18 -114 132 -394 214 -525 l31 -50 -73 -75 c-48
-49 -76 -86 -80 -108 -16 -69 -3 -88 183 -275 97 -98 188 -185 203 -193 35
-18 91 -18 126 0 15 8 54 42 87 75 33 34 63 61 68 61 5 0 21 -9 36 -19 44 -32
241 -127 321 -156 41 -15 113 -37 160 -49 l85 -23 5 -105 c6 -116 18 -145 73
-178 29 -18 51 -20 219 -20 175 0 189 1 208 20 30 30 27 83 -6 109 -24 19 -40
21 -185 21 l-159 0 0 123 c0 110 -2 126 -19 141 -11 10 -74 31 -140 46 -191
46 -326 103 -506 214 -49 31 -98 56 -109 56 -10 0 -58 -38 -105 -85 -48 -47
-92 -85 -97 -85 -5 0 -74 65 -154 145 l-144 144 87 89 c63 65 87 96 87 115 0
13 -25 65 -56 113 -103 165 -193 387 -224 557 -18 99 -31 107 -181 107 l-119
0 0 210 0 210 120 0 c114 0 122 1 145 24 13 13 27 41 30 62 29 173 118 401
221 566 35 57 64 114 64 127 0 16 -27 51 -87 113 l-87 89 149 149 150 150 87
-87 c104 -104 113 -105 213 -41 161 105 362 189 549 229 49 10 97 26 107 35
16 14 19 36 21 143 l3 126 168 5 c152 5 170 7 183 24 20 28 17 69 -5 97 -19
23 -24 24 -188 26 -92 1 -181 -2 -198 -6z"/>
<path d="M2434 4846 c-48 -21 -60 -80 -24 -116 20 -20 34 -20 1198 -20 647 -1
1197 -5 1221 -9 57 -11 91 -37 119 -91 l22 -44 0 -1642 c0 -1139 -3 -1651 -11
-1671 -15 -40 -48 -73 -94 -94 -38 -18 -95 -19 -1236 -19 l-1196 0 -21 -23
c-29 -31 -28 -72 3 -102 l24 -25 336 0 335 0 0 -130 0 -130 -334 0 c-322 0
-334 -1 -360 -21 -19 -15 -26 -30 -26 -54 0 -24 7 -39 26 -54 26 -20 38 -21
373 -21 l347 0 33 -77 c18 -43 36 -84 38 -90 4 -10 -161 -13 -805 -13 l-811 0
-20 -26 c-27 -35 -26 -57 3 -91 l24 -28 972 0 972 0 24 28 c29 34 30 56 4 90
-19 24 -28 26 -107 29 l-86 3 -58 130 -58 130 -1 162 0 162 808 3 807 3 52 24
c66 29 143 111 169 176 18 49 19 95 19 1735 l0 1685 -28 57 c-34 68 -108 139
-175 165 -45 17 -109 18 -1247 20 -996 2 -1205 0 -1231 -11z"/>
<path d="M2410 4530 c-40 -40 -16 -111 42 -125 13 -3 416 -4 896 -3 l874 3 19
24 c25 30 24 76 -1 101 -20 20 -33 20 -915 20 -882 0 -895 0 -915 -20z"/>
<path d="M4455 4530 c-25 -28 -23 -76 4 -103 18 -19 35 -22 116 -25 l95 -4 0
-1334 0 -1334 -1100 0 c-1198 0 -1162 2 -1176 -54 -3 -14 -3 -38 0 -52 15 -56
-28 -55 1227 -52 l1151 3 24 28 24 28 0 1433 0 1433 -21 27 -20 26 -153 0
c-141 0 -154 -2 -171 -20z"/>
<path d="M1920 4189 c-321 -29 -616 -168 -844 -397 -193 -195 -311 -407 -373
-675 -24 -98 -27 -134 -27 -292 -1 -153 3 -196 22 -284 31 -138 62 -223 129
-353 90 -175 134 -208 194 -149 38 39 36 49 -31 161 -285 478 -205 1092 194
1485 221 219 460 328 774 355 107 9 119 12 140 36 35 40 28 85 -19 109 -30 16
-31 16 -159 4z"/>
<path d="M3863 4153 c-36 -7 -80 -56 -93 -101 l-11 -42 -331 0 -332 0 -181
-180 -181 -180 -566 0 c-538 0 -567 -1 -589 -19 -32 -26 -32 -86 0 -112 22
-18 52 -19 619 -19 l596 0 181 180 181 180 302 0 302 0 5 -27 c10 -46 29 -76
64 -100 31 -21 45 -23 161 -23 116 0 130 2 161 23 52 35 59 57 59 200 0 201
-18 221 -205 223 -66 1 -130 0 -142 -3z m197 -218 l0 -75 -70 0 -70 0 0 75 0
75 70 0 70 0 0 -75z"/>
<path d="M3769 3281 c-22 -21 -39 -48 -39 -60 0 -21 -3 -21 -187 -21 l-186 0
-126 -125 -127 -125 -713 -2 -713 -3 -24 -28 c-29 -34 -30 -56 -3 -91 l20 -26
751 0 750 0 127 125 128 125 151 0 152 0 0 -29 c0 -15 9 -40 21 -55 36 -46 68
-56 186 -56 173 0 203 31 203 210 0 173 -29 200 -214 200 l-118 0 -39 -39z
m221 -166 l0 -55 -55 0 -55 0 0 55 0 55 55 0 55 0 0 -55z"/>
<path d="M1732 3267 c-27 -29 -28 -67 -3 -98 l19 -24 533 -3 c369 -2 542 1
560 8 25 11 49 46 49 74 0 7 -9 25 -21 40 l-20 26 -548 0 -548 0 -21 -23z"/>
<path d="M1901 2494 c-34 -43 -26 -86 20 -109 24 -13 132 -15 716 -15 l688 0
125 -125 125 -125 182 0 c126 0 183 -3 183 -11 0 -27 36 -83 64 -100 26 -16
51 -19 144 -19 127 0 155 10 188 64 27 44 28 239 1 279 -35 54 -71 67 -185 67
-132 0 -162 -13 -194 -81 l-23 -48 -150 -1 -149 0 -126 125 -127 125 -731 0
-731 0 -20 -26z m2309 -299 l0 -55 -60 0 -60 0 0 55 0 55 60 0 60 0 0 -55z"/>
<path d="M1135 1895 c-55 -54 -22 -102 148 -216 211 -141 484 -229 713 -229
77 0 84 2 103 26 53 68 5 124 -107 124 -218 0 -485 97 -691 250 -102 77 -128
84 -166 45z"/>
<path d="M2529 1456 c-48 -15 -75 -72 -59 -121 15 -45 44 -65 96 -65 82 0 123
94 69 158 -29 35 -60 43 -106 28z"/>
</g>
</svg>
