<?xml version="1.0" standalone="no"?>
<!DOCTYPE svg PUBLIC "-//W3C//DTD SVG 20010904//EN"
 "http://www.w3.org/TR/2001/REC-SVG-20010904/DTD/svg10.dtd">
<svg version="1.0" xmlns="http://www.w3.org/2000/svg"
 width="64.000000pt" height="64.000000pt" viewBox="0 0 64.000000 64.000000"
 preserveAspectRatio="xMidYMid meet">

<g transform="translate(0.000000,64.000000) scale(0.100000,-0.100000)"
fill="#5A8DEE" stroke="none">
<path d="M90 425 l0 -205 -30 0 -30 0 0 -70 0 -70 30 0 c28 0 30 -3 30 -35 l0
-35 230 0 230 0 0 258 0 258 -53 52 -53 52 -177 0 -177 0 0 -205z m340 135 l0
-50 50 0 50 0 0 -240 0 -240 -210 0 -210 0 0 25 c0 25 1 25 90 25 l90 0 0 70
0 70 -90 0 -90 0 0 195 0 195 160 0 160 0 0 -50z m55 0 l29 -30 -32 0 c-29 0
-32 3 -32 30 0 17 1 30 3 30 2 0 16 -13 32 -30z m-215 -410 l0 -50 -110 0
-110 0 0 50 0 50 110 0 110 0 0 -50z"/>
<path d="M238 468 c-43 -17 -78 -35 -78 -39 0 -5 11 -11 25 -15 22 -5 25 -12
25 -50 0 -41 2 -43 38 -53 47 -14 97 -14 144 -1 35 10 37 13 41 58 l3 47 2
-53 c1 -29 -3 -61 -10 -71 -15 -24 -4 -51 22 -51 26 0 37 27 22 51 -15 23 -16
129 -2 129 6 0 10 4 10 9 0 7 -155 74 -163 70 -1 0 -37 -14 -79 -31z m136 -9
c31 -12 56 -25 56 -29 0 -4 -25 -17 -55 -28 l-55 -21 -55 21 c-30 11 -55 24
-55 27 0 3 24 16 53 28 28 11 53 21 54 22 0 1 26 -9 57 -20z m-90 -84 c32 -14
40 -14 72 0 49 20 54 19 54 -10 0 -30 -30 -45 -90 -45 -60 0 -90 15 -90 45 0
29 5 30 54 10z m176 -105 c0 -5 -4 -10 -10 -10 -5 0 -10 5 -10 10 0 6 5 10 10
10 6 0 10 -4 10 -10z"/>
<path d="M350 50 c0 -6 28 -10 65 -10 37 0 65 4 65 10 0 6 -28 10 -65 10 -37
0 -65 -4 -65 -10z"/>
<path d="M490 50 c0 -5 7 -10 15 -10 8 0 15 5 15 10 0 6 -7 10 -15 10 -8 0
-15 -4 -15 -10z"/>
<path d="M60 150 c0 -37 2 -41 21 -38 49 7 49 69 0 76 -19 3 -21 -1 -21 -38z
m32 -12 c-9 -9 -12 -7 -12 12 0 19 3 21 12 12 9 -9 9 -15 0 -24z"/>
<path d="M130 150 c0 -38 2 -40 30 -40 28 0 30 2 30 40 0 38 -2 40 -30 40 -28
0 -30 -2 -30 -40z m40 0 c0 -11 -4 -20 -10 -20 -5 0 -10 9 -10 20 0 11 5 20
10 20 6 0 10 -9 10 -20z"/>
<path d="M200 150 c0 -38 2 -40 30 -40 17 0 30 5 30 10 0 6 -9 10 -20 10 -13
0 -20 7 -20 20 0 13 7 20 20 20 11 0 20 5 20 10 0 6 -13 10 -30 10 -28 0 -30
-2 -30 -40z"/>
</g>
</svg>